/* XPM */
static char * CloseButton_xpm[] = {
"21 21 111 2",
"  	c None",
". 	c #BCBCBC",
"+ 	c #B5B5B5",
"@ 	c #BDBDBD",
"# 	c #C2C2C2",
"$ 	c #A3A3A3",
"% 	c #ACACAC",
"& 	c #BEBEBE",
"* 	c #C8C8C8",
"= 	c #ABABAB",
"- 	c #BBBBBB",
"; 	c #BABABA",
"> 	c #B2B2B2",
", 	c #B7B7B7",
"' 	c #828282",
") 	c #8E8E8E",
"! 	c #989898",
"~ 	c #979797",
"{ 	c #AAAAAA",
"] 	c #9B9B9B",
"^ 	c #848484",
"/ 	c #939393",
"( 	c #959595",
"_ 	c #949494",
": 	c #9C9C9C",
"< 	c #878787",
"[ 	c #A0A0A0",
"} 	c #898989",
"| 	c #9D9D9D",
"1 	c #656565",
"2 	c #B1B1B1",
"3 	c #8F8F8F",
"4 	c #8A8A8A",
"5 	c #909090",
"6 	c #A2A2A2",
"7 	c #9A9A9A",
"8 	c #929292",
"9 	c #969696",
"0 	c #808080",
"a 	c #747474",
"b 	c #080808",
"c 	c #000000",
"d 	c #9F9F9F",
"e 	c #919191",
"f 	c #8D8D8D",
"g 	c #A1A1A1",
"h 	c #575757",
"i 	c #A7A7A7",
"j 	c #050505",
"k 	c #101010",
"l 	c #999999",
"m 	c #A4A4A4",
"n 	c #A5A5A5",
"o 	c #040404",
"p 	c #4D4D4D",
"q 	c #C7C7C7",
"r 	c #171717",
"s 	c #060606",
"t 	c #6F6F6F",
"u 	c #818181",
"v 	c #070707",
"w 	c #010101",
"x 	c #737373",
"y 	c #A9A9A9",
"z 	c #0E0E0E",
"A 	c #888888",
"B 	c #8C8C8C",
"C 	c #B8B8B8",
"D 	c #606060",
"E 	c #0B0B0B",
"F 	c #020202",
"G 	c #090909",
"H 	c #616161",
"I 	c #C0C0C0",
"J 	c #838383",
"K 	c #0D0D0D",
"L 	c #636363",
"M 	c #141414",
"N 	c #8B8B8B",
"O 	c #6A6A6A",
"P 	c #757575",
"Q 	c #181818",
"R 	c #0C0C0C",
"S 	c #585858",
"T 	c #0A0A0A",
"U 	c #111111",
"V 	c #868686",
"W 	c #9E9E9E",
"X 	c #5F5F5F",
"Y 	c #6E6E6E",
"Z 	c #A8A8A8",
"` 	c #858585",
" .	c #AFAFAF",
"..	c #646464",
"+.	c #030303",
"@.	c #AEAEAE",
"#.	c #1E1E1E",
"$.	c #6D6D6D",
"%.	c #B3B3B3",
"&.	c #1D1D1D",
"*.	c #131313",
"=.	c #696969",
"-.	c #ADADAD",
";.	c #5A5A5A",
">.	c #565656",
",.	c #676767",
"'.	c #6B6B6B",
").	c #5C5C5C",
"!.	c #6C6C6C",
"~.	c #535353",
"{.	c #5E5E5E",
". + @ # $ . % & * = - ; > - > + , ; . > ' ",
"- ) ! ) ~ { ] ) ^ ] / ( ! _ : _ < [ } | 1 ",
"2 / ! [ 3 4 ] / 5 6 ~ ) 7 7 8 9 / 7 6 0 a ",
"# 3 : b c _ ~ d ! / e f 3 e 8 | g c c % h ",
"i ~ e j c k 4 ) ! e 7 l / m n } c o c 9 p ",
"q m ' ] r c s : } , t ( [ u e s v w e 9 x ",
"y 8 ( ~ ~ z c c A B C B ( e k c c ] 9 ] D ",
"@ ( : / 4 ! c j E / ^ $ B F c G | } ! 8 H ",
"I 4 = J ~ 4 | c K c : _ c w c 7 ! ] / 4 L ",
"% 9 8 ~ _ C ' 9 c M c j c c 5 e N ) ~ | O ",
"; 7 f | _ P = A 6 c c Q c 5 d _ 7 8 9 ~ L ",
", : ( 3 l 9 B n B c R c s ] 9 3 ( ~ ] 3 S ",
"C f e 9 ! ] 8 e c T c U c b } g V 8 W ! X ",
"; ( 8 W 8 } e c c c 4 7 c c c f $ 7 ) e Y ",
"Z y ] 8 _ 7 r c c l ] 7 4 s v T u ] 5 ` Y ",
"- < ] 9 ] c c G 7 9 f ) | 8 c c E `  .) ..",
"- 4 7 ! c +.c 7 9 f l / f @.` E c #.J 6 $.",
"%.g ) c c v ~ f ! ) W d < 5 : ' &.c *.) h ",
"@ A : *.T ! 4 : 7 f _ | 8 f 7 m V w c 7 =.",
"-.m ^ l ^ / d 4 _ ( 3 ) ! | 8 V g e 6 g ;.",
"< >.P ,...t X '.).Y ,.S D O ,.1 !.~.;.{.a "};
