/* XPM */
static char * MinimizeButton_xpm[] = {
"21 21 84 1",
" 	c None",
".	c #B7B7B7",
"+	c #B6B6B6",
"@	c #C0C0C0",
"#	c #C4C4C4",
"$	c #A1A1A1",
"%	c #C3C3C3",
"&	c #B8B8B8",
"*	c #B4B4B4",
"=	c #868686",
"-	c #B5B5B5",
";	c #8C8C8C",
">	c #929292",
",	c #A0A0A0",
"'	c #969696",
")	c #9E9E9E",
"!	c #949494",
"~	c #939393",
"{	c #9B9B9B",
"]	c #919191",
"^	c #5D5D5D",
"/	c #C6C6C6",
"(	c #999999",
"_	c #878787",
":	c #979797",
"<	c #959595",
"[	c #848484",
"}	c #A8A8A8",
"|	c #676767",
"1	c #8F8F8F",
"2	c #888888",
"3	c #111111",
"4	c #020202",
"5	c #000000",
"6	c #010101",
"7	c #080808",
"8	c #040404",
"9	c #0C0C0C",
"0	c #8A8A8A",
"a	c #5F5F5F",
"b	c #B3B3B3",
"c	c #9C9C9C",
"d	c #989898",
"e	c #656565",
"f	c #BEBEBE",
"g	c #060606",
"h	c #636363",
"i	c #BABABA",
"j	c #8E8E8E",
"k	c #030303",
"l	c #616161",
"m	c #0A0A0A",
"n	c #090909",
"o	c #6E6E6E",
"p	c #9A9A9A",
"q	c #898989",
"r	c #646464",
"s	c #BBBBBB",
"t	c #0B0B0B",
"u	c #7D7D7D",
"v	c #909090",
"w	c #797979",
"x	c #131313",
"y	c #A3A3A3",
"z	c #191919",
"A	c #9F9F9F",
"B	c #8D8D8D",
"C	c #0E0E0E",
"D	c #050505",
"E	c #575757",
"F	c #A9A9A9",
"G	c #9D9D9D",
"H	c #7C7C7C",
"I	c #A7A7A7",
"J	c #727272",
"K	c #5C5C5C",
"L	c #757575",
"M	c #686868",
"N	c #6C6C6C",
"O	c #5E5E5E",
"P	c #595959",
"Q	c #626262",
"R	c #6F6F6F",
"S	c #707070",
".+@#$%+&++++++++&++*=",
"-;>,');!''''''''~{]>^",
"/](_~:!)''''''''~<[}|",
"+1234555666666667890a",
"b{c5559566666666655de",
"f:d5g4554444444455g<h",
"i;j5745566666666k5g]l",
".'d5545m44444444n56{o",
"&~p5kq2qqqqqqqqq054<r",
"&~p5kq2qqqqqqqqq054<r",
"&~p5kq2qqqqqqqqq054<r",
"&~p5kq2qqqqqqqqq054<r",
"&~p5kq2qqqqqqqqq054<r",
"&~p5kq2qqqqqqqqq054<r",
"&~p5kq2qqqqqqqqq054<r",
"&~p5kq2qqqqqqqqq054<r",
"sj;t8_uvqqqqqqqqwx5:r",
"i;y557g566666666z55A|",
"@BpCg5D5555555555D9>E",
"F>dqv:Gd''''''''>dHIh",
"_JKLMNOPQQQQQQQQeR|SQ"};
